<svg width="33" height="32" viewBox="0 0 33 32" fill="none" xmlns="http://www.w3.org/2000/svg">
<mask id="mask0_3674_109293" style="mask-type:luminance" maskUnits="userSpaceOnUse" x="0" y="0" width="33" height="32">
<path d="M32.3335 0H0.333496V32H32.3335V0Z" fill="white"/>
</mask>
<g mask="url(#mask0_3674_109293)">
<path fill-rule="evenodd" clip-rule="evenodd" d="M2.58292 2.24942C0.333496 4.49885 0.333496 8.11923 0.333496 15.36V16.64C0.333496 23.8808 0.333496 27.5012 2.58292 29.7506C4.83234 32 8.45273 32 15.6935 32H16.9735C24.2143 32 27.8346 32 30.0841 29.7506C32.3335 27.5012 32.3335 23.8808 32.3335 16.64V15.36C32.3335 8.11923 32.3335 4.49885 30.0841 2.24942C27.8346 0 24.2143 0 16.9735 0H15.6935C8.45273 0 4.83234 0 2.58292 2.24942ZM5.73356 9.73341C5.90687 18.0534 10.0668 23.0534 17.3602 23.0534H17.7736V18.2934C20.4536 18.56 22.4801 20.5201 23.2934 23.0534H27.0802C26.0402 19.2667 23.3067 17.1734 21.6001 16.3734C23.3067 15.3867 25.7068 12.9867 26.2801 9.73341H22.84C22.0933 12.3734 19.8802 14.7734 17.7736 15V9.73341H14.3335V18.96C12.2002 18.4267 9.50687 15.8401 9.38687 9.73341H5.73356Z" fill="#000A29"/>
</g>
</svg>
